<svg xmlns="http://www.w3.org/2000/svg" version="1.1" xmlns:xlink="http://www.w3.org/1999/xlink" xmlns:svgjs="http://svgjs.dev/svgjs" width="2000" height="400" preserveAspectRatio="none" viewBox="0 0 2000 400">
    <g mask="url(&quot;#SvgjsMask1036&quot;)" fill="none">
        <rect width="2000" height="400" x="0" y="0" fill="#0e2a47"></rect>
        <path d="M-78.19 400.57L-78.19 400.57" stroke="#132e65" stroke-width="1.5"></path>
        <path d="M-78.19 400.57L-58.52 521.37" stroke="#132e65" stroke-width="1.5"></path>
        <path d="M-58.52 521.37L-58.52 521.37" stroke="#132e65" stroke-width="1.5"></path>
        <path d="M-58.52 521.37L86.95 347.76" stroke="#132e65" stroke-width="1.5"></path>
        <path d="M-58.52 521.37L247.22 515.59" stroke="#132e65" stroke-width="1.5"></path>
        <path d="M-58.52 521.37L103.69 251.65" stroke="#132e65" stroke-width="1.5"></path>
        <path d="M-58.52 521.37L206.46 344.72" stroke="#132e65" stroke-width="1.5"></path>
        <path d="M-58.52 521.37L211.33 262.45" stroke="#132e65" stroke-width="1.5"></path>
        <path d="M103.69 251.65L103.69 251.65" stroke="#132e65" stroke-width="1.5"></path>
        <path d="M103.69 251.65L86.95 347.76" stroke="#132e65" stroke-width="1.5"></path>
        <path d="M103.69 251.65L211.33 262.45" stroke="#132e65" stroke-width="1.5"></path>
        <path d="M103.69 251.65L206.46 344.72" stroke="#132e65" stroke-width="1.5"></path>
        <path d="M103.69 251.65L-78.19 400.57" stroke="#132e65" stroke-width="1.5"></path>
        <path d="M103.69 251.65L356.14 243.4" stroke="#132e65" stroke-width="1.5"></path>
        <path d="M103.69 251.65L247.22 515.59" stroke="#132e65" stroke-width="1.5"></path>
        <path d="M86.95 347.76L86.95 347.76" stroke="#132e65" stroke-width="1.5"></path>
        <path d="M86.95 347.76L206.46 344.72" stroke="#132e65" stroke-width="1.5"></path>
        <path d="M86.95 347.76L211.33 262.45" stroke="#132e65" stroke-width="1.5"></path>
        <path d="M86.95 347.76L-78.19 400.57" stroke="#132e65" stroke-width="1.5"></path>
        <path d="M211.33 262.45L211.33 262.45" stroke="#132e65" stroke-width="1.5"></path>
        <path d="M211.33 262.45L206.46 344.72" stroke="#132e65" stroke-width="1.5"></path>
        <path d="M211.33 262.45L356.14 243.4" stroke="#132e65" stroke-width="1.5"></path>
        <path d="M206.46 344.72L206.46 344.72" stroke="#132e65" stroke-width="1.5"></path>
        <path d="M206.46 344.72L247.22 515.59" stroke="#132e65" stroke-width="1.5"></path>
        <path d="M206.46 344.72L356.14 243.4" stroke="#132e65" stroke-width="1.5"></path>
        <path d="M206.46 344.72L390.27 346.54" stroke="#132e65" stroke-width="1.5"></path>
        <path d="M247.22 515.59L247.22 515.59" stroke="#132e65" stroke-width="1.5"></path>
        <path d="M247.22 515.59L355.63 519.93" stroke="#132e65" stroke-width="1.5"></path>
        <path d="M247.22 515.59L390.27 346.54" stroke="#132e65" stroke-width="1.5"></path>
        <path d="M247.22 515.59L86.95 347.76" stroke="#132e65" stroke-width="1.5"></path>
        <path d="M356.14 243.4L356.14 243.4" stroke="#132e65" stroke-width="1.5"></path>
        <path d="M356.14 243.4L390.27 346.54" stroke="#132e65" stroke-width="1.5"></path>
        <path d="M390.27 346.54L390.27 346.54" stroke="#132e65" stroke-width="1.5"></path>
        <path d="M390.27 346.54L561.71 375.24" stroke="#132e65" stroke-width="1.5"></path>
        <path d="M390.27 346.54L355.63 519.93" stroke="#132e65" stroke-width="1.5"></path>
        <path d="M355.63 519.93L355.63 519.93" stroke="#132e65" stroke-width="1.5"></path>
        <path d="M355.63 519.93L529.58 533.38" stroke="#132e65" stroke-width="1.5"></path>
        <path d="M561.71 375.24L561.71 375.24" stroke="#132e65" stroke-width="1.5"></path>
        <path d="M561.71 375.24L678.97 338.03" stroke="#132e65" stroke-width="1.5"></path>
        <path d="M561.71 375.24L529.58 533.38" stroke="#132e65" stroke-width="1.5"></path>
        <path d="M561.71 375.24L655.8 205.36" stroke="#132e65" stroke-width="1.5"></path>
        <path d="M529.58 533.38L529.58 533.38" stroke="#132e65" stroke-width="1.5"></path>
        <path d="M529.58 533.38L651.2 551.43" stroke="#132e65" stroke-width="1.5"></path>
        <path d="M529.58 533.38L390.27 346.54" stroke="#132e65" stroke-width="1.5"></path>
        <path d="M529.58 533.38L678.97 338.03" stroke="#132e65" stroke-width="1.5"></path>
        <path d="M655.8 205.36L655.8 205.36" stroke="#132e65" stroke-width="1.5"></path>
        <path d="M655.8 205.36L678.97 338.03" stroke="#132e65" stroke-width="1.5"></path>
        <path d="M655.8 205.36L843.31 232.38" stroke="#132e65" stroke-width="1.5"></path>
        <path d="M655.8 205.36L834.78 361.41" stroke="#132e65" stroke-width="1.5"></path>
        <path d="M655.8 205.36L390.27 346.54" stroke="#132e65" stroke-width="1.5"></path>
        <path d="M655.8 205.36L356.14 243.4" stroke="#132e65" stroke-width="1.5"></path>
        <path d="M678.97 338.03L678.97 338.03" stroke="#132e65" stroke-width="1.5"></path>
        <path d="M651.2 551.43L651.2 551.43" stroke="#132e65" stroke-width="1.5"></path>
        <path d="M651.2 551.43L845.54 544.45" stroke="#132e65" stroke-width="1.5"></path>
        <path d="M651.2 551.43L561.71 375.24" stroke="#132e65" stroke-width="1.5"></path>
        <path d="M651.2 551.43L678.97 338.03" stroke="#132e65" stroke-width="1.5"></path>
        <path d="M651.2 551.43L834.78 361.41" stroke="#132e65" stroke-width="1.5"></path>
        <path d="M651.2 551.43L355.63 519.93" stroke="#132e65" stroke-width="1.5"></path>
        <path d="M843.31 232.38L843.31 232.38" stroke="#132e65" stroke-width="1.5"></path>
        <path d="M843.31 232.38L834.78 361.41" stroke="#132e65" stroke-width="1.5"></path>
        <path d="M843.31 232.38L977.42 258.84" stroke="#132e65" stroke-width="1.5"></path>
        <path d="M843.31 232.38L978.61 347.88" stroke="#132e65" stroke-width="1.5"></path>
        <path d="M834.78 361.41L834.78 361.41" stroke="#132e65" stroke-width="1.5"></path>
        <path d="M834.78 361.41L978.61 347.88" stroke="#132e65" stroke-width="1.5"></path>
        <path d="M845.54 544.45L845.54 544.45" stroke="#132e65" stroke-width="1.5"></path>
        <path d="M845.54 544.45L961.62 545.79" stroke="#132e65" stroke-width="1.5"></path>
        <path d="M845.54 544.45L834.78 361.41" stroke="#132e65" stroke-width="1.5"></path>
        <path d="M845.54 544.45L978.61 347.88" stroke="#132e65" stroke-width="1.5"></path>
        <path d="M845.54 544.45L678.97 338.03" stroke="#132e65" stroke-width="1.5"></path>
        <path d="M977.42 258.84L977.42 258.84" stroke="#132e65" stroke-width="1.5"></path>
        <path d="M977.42 258.84L978.61 347.88" stroke="#132e65" stroke-width="1.5"></path>
        <path d="M977.42 258.84L1090.16 244.08" stroke="#132e65" stroke-width="1.5"></path>
        <path d="M977.42 258.84L834.78 361.41" stroke="#132e65" stroke-width="1.5"></path>
        <path d="M978.61 347.88L978.61 347.88" stroke="#132e65" stroke-width="1.5"></path>
        <path d="M978.61 347.88L1090.16 244.08" stroke="#132e65" stroke-width="1.5"></path>
        <path d="M978.61 347.88L1138.54 412.08" stroke="#132e65" stroke-width="1.5"></path>
        <path d="M978.61 347.88L961.62 545.79" stroke="#132e65" stroke-width="1.5"></path>
        <path d="M961.62 545.79L961.62 545.79" stroke="#132e65" stroke-width="1.5"></path>
        <path d="M961.62 545.79L1117.62 532.8" stroke="#132e65" stroke-width="1.5"></path>
        <path d="M1090.16 244.08L1090.16 244.08" stroke="#132e65" stroke-width="1.5"></path>
        <path d="M1090.16 244.08L1138.54 412.08" stroke="#132e65" stroke-width="1.5"></path>
        <path d="M1090.16 244.08L1238.4 92.76" stroke="#132e65" stroke-width="1.5"></path>
        <path d="M1090.16 244.08L1306.9 220.74" stroke="#132e65" stroke-width="1.5"></path>
        <path d="M1138.54 412.08L1138.54 412.08" stroke="#132e65" stroke-width="1.5"></path>
        <path d="M1138.54 412.08L1117.62 532.8" stroke="#132e65" stroke-width="1.5"></path>
        <path d="M1117.62 532.8L1117.62 532.8" stroke="#132e65" stroke-width="1.5"></path>
        <path d="M1117.62 532.8L1277.67 554.8" stroke="#132e65" stroke-width="1.5"></path>
        <path d="M1117.62 532.8L978.61 347.88" stroke="#132e65" stroke-width="1.5"></path>
        <path d="M1117.62 532.8L1311.16 396.86" stroke="#132e65" stroke-width="1.5"></path>
        <path d="M1277.21 -51.18L1277.21 -51.18" stroke="#132e65" stroke-width="1.5"></path>
        <path d="M1277.21 -51.18L1238.4 92.76" stroke="#132e65" stroke-width="1.5"></path>
        <path d="M1277.21 -51.18L1430.83 37.62" stroke="#132e65" stroke-width="1.5"></path>
        <path d="M1238.4 92.76L1238.4 92.76" stroke="#132e65" stroke-width="1.5"></path>
        <path d="M1238.4 92.76L1306.9 220.74" stroke="#132e65" stroke-width="1.5"></path>
        <path d="M1238.4 92.76L1430.83 37.62" stroke="#132e65" stroke-width="1.5"></path>
        <path d="M1238.4 92.76L1459.2 215.57" stroke="#132e65" stroke-width="1.5"></path>
        <path d="M1306.9 220.74L1306.9 220.74" stroke="#132e65" stroke-width="1.5"></path>
        <path d="M1306.9 220.74L1459.2 215.57" stroke="#132e65" stroke-width="1.5"></path>
        <path d="M1306.9 220.74L1311.16 396.86" stroke="#132e65" stroke-width="1.5"></path>
        <path d="M1306.9 220.74L1430.83 37.62" stroke="#132e65" stroke-width="1.5"></path>
        <path d="M1311.16 396.86L1311.16 396.86" stroke="#132e65" stroke-width="1.5"></path>
        <path d="M1311.16 396.86L1394.45 505.18" stroke="#132e65" stroke-width="1.5"></path>
        <path d="M1311.16 396.86L1449.23 391.15" stroke="#132e65" stroke-width="1.5"></path>
        <path d="M1311.16 396.86L1277.67 554.8" stroke="#132e65" stroke-width="1.5"></path>
        <path d="M1311.16 396.86L1138.54 412.08" stroke="#132e65" stroke-width="1.5"></path>
        <path d="M1311.16 396.86L1459.2 215.57" stroke="#132e65" stroke-width="1.5"></path>
        <path d="M1277.67 554.8L1277.67 554.8" stroke="#132e65" stroke-width="1.5"></path>
        <path d="M1277.67 554.8L1394.45 505.18" stroke="#132e65" stroke-width="1.5"></path>
        <path d="M1277.67 554.8L1138.54 412.08" stroke="#132e65" stroke-width="1.5"></path>
        <path d="M1462.23 -53.28L1462.23 -53.28" stroke="#132e65" stroke-width="1.5"></path>
        <path d="M1462.23 -53.28L1430.83 37.62" stroke="#132e65" stroke-width="1.5"></path>
        <path d="M1462.23 -53.28L1575.24 -54.81" stroke="#132e65" stroke-width="1.5"></path>
        <path d="M1462.23 -53.28L1277.21 -51.18" stroke="#132e65" stroke-width="1.5"></path>
        <path d="M1462.23 -53.28L1610.82 81.81" stroke="#132e65" stroke-width="1.5"></path>
        <path d="M1462.23 -53.28L1707.92 -111.51" stroke="#132e65" stroke-width="1.5"></path>
        <path d="M1462.23 -53.28L1238.4 92.76" stroke="#132e65" stroke-width="1.5"></path>
        <path d="M1430.83 37.62L1430.83 37.62" stroke="#132e65" stroke-width="1.5"></path>
        <path d="M1430.83 37.62L1575.24 -54.81" stroke="#132e65" stroke-width="1.5"></path>
        <path d="M1459.2 215.57L1459.2 215.57" stroke="#132e65" stroke-width="1.5"></path>
        <path d="M1459.2 215.57L1538.16 210.67" stroke="#132e65" stroke-width="1.5"></path>
        <path d="M1449.23 391.15L1449.23 391.15" stroke="#132e65" stroke-width="1.5"></path>
        <path d="M1449.23 391.15L1549.04 400.71" stroke="#132e65" stroke-width="1.5"></path>
        <path d="M1449.23 391.15L1394.45 505.18" stroke="#132e65" stroke-width="1.5"></path>
        <path d="M1394.45 505.18L1394.45 505.18" stroke="#132e65" stroke-width="1.5"></path>
        <path d="M1575.24 -54.81L1575.24 -54.81" stroke="#132e65" stroke-width="1.5"></path>
        <path d="M1575.24 -54.81L1610.82 81.81" stroke="#132e65" stroke-width="1.5"></path>
        <path d="M1575.24 -54.81L1707.92 -111.51" stroke="#132e65" stroke-width="1.5"></path>
        <path d="M1575.24 -54.81L1752.3 101.46" stroke="#132e65" stroke-width="1.5"></path>
        <path d="M1575.24 -54.81L1538.16 210.67" stroke="#132e65" stroke-width="1.5"></path>
        <path d="M1610.82 81.81L1610.82 81.81" stroke="#132e65" stroke-width="1.5"></path>
        <path d="M1610.82 81.81L1752.3 101.46" stroke="#132e65" stroke-width="1.5"></path>
        <path d="M1610.82 81.81L1538.16 210.67" stroke="#132e65" stroke-width="1.5"></path>
        <path d="M1610.82 81.81L1430.83 37.62" stroke="#132e65" stroke-width="1.5"></path>
        <path d="M1538.16 210.67L1538.16 210.67" stroke="#132e65" stroke-width="1.5"></path>
        <path d="M1538.16 210.67L1549.04 400.71" stroke="#132e65" stroke-width="1.5"></path>
        <path d="M1538.16 210.67L1449.23 391.15" stroke="#132e65" stroke-width="1.5"></path>
        <path d="M1538.16 210.67L1430.83 37.62" stroke="#132e65" stroke-width="1.5"></path>
        <path d="M1538.16 210.67L1761.43 260.98" stroke="#132e65" stroke-width="1.5"></path>
        <path d="M1549.04 400.71L1549.04 400.71" stroke="#132e65" stroke-width="1.5"></path>
        <path d="M1549.04 400.71L1584.63 505.51" stroke="#132e65" stroke-width="1.5"></path>
        <path d="M1549.04 400.71L1714.22 409.72" stroke="#132e65" stroke-width="1.5"></path>
        <path d="M1549.04 400.71L1692.24 488.27" stroke="#132e65" stroke-width="1.5"></path>
        <path d="M1549.04 400.71L1394.45 505.18" stroke="#132e65" stroke-width="1.5"></path>
        <path d="M1584.63 505.51L1584.63 505.51" stroke="#132e65" stroke-width="1.5"></path>
        <path d="M1584.63 505.51L1692.24 488.27" stroke="#132e65" stroke-width="1.5"></path>
        <path d="M1584.63 505.51L1714.22 409.72" stroke="#132e65" stroke-width="1.5"></path>
        <path d="M1584.63 505.51L1449.23 391.15" stroke="#132e65" stroke-width="1.5"></path>
        <path d="M1707.92 -111.51L1707.92 -111.51" stroke="#132e65" stroke-width="1.5"></path>
        <path d="M1752.3 101.46L1752.3 101.46" stroke="#132e65" stroke-width="1.5"></path>
        <path d="M1752.3 101.46L1899.72 86.46" stroke="#132e65" stroke-width="1.5"></path>
        <path d="M1752.3 101.46L1761.43 260.98" stroke="#132e65" stroke-width="1.5"></path>
        <path d="M1761.43 260.98L1761.43 260.98" stroke="#132e65" stroke-width="1.5"></path>
        <path d="M1761.43 260.98L1896.1 227.56" stroke="#132e65" stroke-width="1.5"></path>
        <path d="M1761.43 260.98L1714.22 409.72" stroke="#132e65" stroke-width="1.5"></path>
        <path d="M1714.22 409.72L1714.22 409.72" stroke="#132e65" stroke-width="1.5"></path>
        <path d="M1714.22 409.72L1692.24 488.27" stroke="#132e65" stroke-width="1.5"></path>
        <path d="M1692.24 488.27L1692.24 488.27" stroke="#132e65" stroke-width="1.5"></path>
        <path d="M1692.24 488.27L1869.61 386.24" stroke="#132e65" stroke-width="1.5"></path>
        <path d="M1692.24 488.27L1761.43 260.98" stroke="#132e65" stroke-width="1.5"></path>
        <path d="M1692.24 488.27L1449.23 391.15" stroke="#132e65" stroke-width="1.5"></path>
        <path d="M1856.15 -67.52L1856.15 -67.52" stroke="#132e65" stroke-width="1.5"></path>
        <path d="M1856.15 -67.52L1707.92 -111.51" stroke="#132e65" stroke-width="1.5"></path>
        <path d="M1899.72 86.46L1899.72 86.46" stroke="#132e65" stroke-width="1.5"></path>
        <path d="M1899.72 86.46L2031.76 61.88" stroke="#132e65" stroke-width="1.5"></path>
        <path d="M1899.72 86.46L1896.1 227.56" stroke="#132e65" stroke-width="1.5"></path>
        <path d="M1899.72 86.46L1856.15 -67.52" stroke="#132e65" stroke-width="1.5"></path>
        <path d="M1896.1 227.56L1896.1 227.56" stroke="#132e65" stroke-width="1.5"></path>
        <path d="M1896.1 227.56L2026.22 215.32" stroke="#132e65" stroke-width="1.5"></path>
        <path d="M1896.1 227.56L1869.61 386.24" stroke="#132e65" stroke-width="1.5"></path>
        <path d="M1896.1 227.56L1752.3 101.46" stroke="#132e65" stroke-width="1.5"></path>
        <path d="M1869.61 386.24L1869.61 386.24" stroke="#132e65" stroke-width="1.5"></path>
        <path d="M1869.61 386.24L2000.79 394.57" stroke="#132e65" stroke-width="1.5"></path>
        <path d="M2031.76 61.88L2031.76 61.88" stroke="#132e65" stroke-width="1.5"></path>
        <path d="M2031.76 61.88L2183.09 53.77" stroke="#132e65" stroke-width="1.5"></path>
        <path d="M2031.76 61.88L2026.22 215.32" stroke="#132e65" stroke-width="1.5"></path>
        <path d="M2031.76 61.88L2190.06 198.7" stroke="#132e65" stroke-width="1.5"></path>
        <path d="M2026.22 215.32L2026.22 215.32" stroke="#132e65" stroke-width="1.5"></path>
        <path d="M2000.79 394.57L2000.79 394.57" stroke="#132e65" stroke-width="1.5"></path>
        <path d="M2000.79 394.57L2013.08 497.31" stroke="#132e65" stroke-width="1.5"></path>
        <path d="M2000.79 394.57L2164.65 359.93" stroke="#132e65" stroke-width="1.5"></path>
        <path d="M2013.08 497.31L2013.08 497.31" stroke="#132e65" stroke-width="1.5"></path>
        <path d="M2013.08 497.31L2153.01 561.52" stroke="#132e65" stroke-width="1.5"></path>
        <path d="M2013.08 497.31L1869.61 386.24" stroke="#132e65" stroke-width="1.5"></path>
        <path d="M2013.08 497.31L2164.65 359.93" stroke="#132e65" stroke-width="1.5"></path>
        <path d="M2013.08 497.31L2026.22 215.32" stroke="#132e65" stroke-width="1.5"></path>
        <path d="M2183.09 53.77L2183.09 53.77" stroke="#132e65" stroke-width="1.5"></path>
        <path d="M2183.09 53.77L2190.06 198.7" stroke="#132e65" stroke-width="1.5"></path>
        <path d="M2183.09 53.77L2026.22 215.32" stroke="#132e65" stroke-width="1.5"></path>
        <path d="M2183.09 53.77L1899.72 86.46" stroke="#132e65" stroke-width="1.5"></path>
        <path d="M2183.09 53.77L2164.65 359.93" stroke="#132e65" stroke-width="1.5"></path>
        <path d="M2190.06 198.7L2190.06 198.7" stroke="#132e65" stroke-width="1.5"></path>
        <path d="M2190.06 198.7L2164.65 359.93" stroke="#132e65" stroke-width="1.5"></path>
        <path d="M2190.06 198.7L2026.22 215.32" stroke="#132e65" stroke-width="1.5"></path>
        <path d="M2164.65 359.93L2164.65 359.93" stroke="#132e65" stroke-width="1.5"></path>
        <path d="M2153.01 561.52L2153.01 561.52" stroke="#132e65" stroke-width="1.5"></path>
        <path d="M2153.01 561.52L2164.65 359.93" stroke="#132e65" stroke-width="1.5"></path>
        <circle r="5" cx="-78.19" cy="400.57" fill="#132e65"></circle>
        <circle r="5" cx="-58.52" cy="521.37" fill="#132e65"></circle>
        <circle r="5" cx="103.69" cy="251.65" fill="#132e65"></circle>
        <circle r="5" cx="86.95" cy="347.76" fill="#132e65"></circle>
        <circle r="5" cx="211.33" cy="262.45" fill="#132e65"></circle>
        <circle r="5" cx="206.46" cy="344.72" fill="#132e65"></circle>
        <circle r="5" cx="247.22" cy="515.59" fill="#132e65"></circle>
        <circle r="5" cx="356.14" cy="243.4" fill="#132e65"></circle>
        <circle r="5" cx="390.27" cy="346.54" fill="#132e65"></circle>
        <circle r="5" cx="355.63" cy="519.93" fill="#132e65"></circle>
        <circle r="5" cx="561.71" cy="375.24" fill="#132e65"></circle>
        <circle r="5" cx="529.58" cy="533.38" fill="#132e65"></circle>
        <circle r="5" cx="655.8" cy="205.36" fill="#132e65"></circle>
        <circle r="5" cx="678.97" cy="338.03" fill="#132e65"></circle>
        <circle r="5" cx="651.2" cy="551.43" fill="#132e65"></circle>
        <circle r="5" cx="843.31" cy="232.38" fill="#132e65"></circle>
        <circle r="5" cx="834.78" cy="361.41" fill="#132e65"></circle>
        <circle r="5" cx="845.54" cy="544.45" fill="#132e65"></circle>
        <circle r="5" cx="977.42" cy="258.84" fill="#132e65"></circle>
        <circle r="5" cx="978.61" cy="347.88" fill="#132e65"></circle>
        <circle r="5" cx="961.62" cy="545.79" fill="#132e65"></circle>
        <circle r="5" cx="1090.16" cy="244.08" fill="#132e65"></circle>
        <circle r="5" cx="1138.54" cy="412.08" fill="#132e65"></circle>
        <circle r="5" cx="1117.62" cy="532.8" fill="#132e65"></circle>
        <circle r="5" cx="1277.21" cy="-51.18" fill="#132e65"></circle>
        <circle r="5" cx="1238.4" cy="92.76" fill="#132e65"></circle>
        <circle r="5" cx="1306.9" cy="220.74" fill="#132e65"></circle>
        <circle r="5" cx="1311.16" cy="396.86" fill="#132e65"></circle>
        <circle r="5" cx="1277.67" cy="554.8" fill="#132e65"></circle>
        <circle r="5" cx="1462.23" cy="-53.28" fill="#132e65"></circle>
        <circle r="5" cx="1430.83" cy="37.62" fill="#132e65"></circle>
        <circle r="5" cx="1459.2" cy="215.57" fill="#132e65"></circle>
        <circle r="5" cx="1449.23" cy="391.15" fill="#132e65"></circle>
        <circle r="5" cx="1394.45" cy="505.18" fill="#132e65"></circle>
        <circle r="5" cx="1575.24" cy="-54.81" fill="#132e65"></circle>
        <circle r="5" cx="1610.82" cy="81.81" fill="#132e65"></circle>
        <circle r="5" cx="1538.16" cy="210.67" fill="#132e65"></circle>
        <circle r="5" cx="1549.04" cy="400.71" fill="#132e65"></circle>
        <circle r="5" cx="1584.63" cy="505.51" fill="#132e65"></circle>
        <circle r="5" cx="1707.92" cy="-111.51" fill="#132e65"></circle>
        <circle r="5" cx="1752.3" cy="101.46" fill="#132e65"></circle>
        <circle r="5" cx="1761.43" cy="260.98" fill="#132e65"></circle>
        <circle r="5" cx="1714.22" cy="409.72" fill="#132e65"></circle>
        <circle r="5" cx="1692.24" cy="488.27" fill="#132e65"></circle>
        <circle r="5" cx="1856.15" cy="-67.52" fill="#132e65"></circle>
        <circle r="5" cx="1899.72" cy="86.46" fill="#132e65"></circle>
        <circle r="5" cx="1896.1" cy="227.56" fill="#132e65"></circle>
        <circle r="5" cx="1869.61" cy="386.24" fill="#132e65"></circle>
        <circle r="5" cx="2031.76" cy="61.88" fill="#132e65"></circle>
        <circle r="5" cx="2026.22" cy="215.32" fill="#132e65"></circle>
        <circle r="5" cx="2000.79" cy="394.57" fill="#132e65"></circle>
        <circle r="5" cx="2013.08" cy="497.31" fill="#132e65"></circle>
        <circle r="5" cx="2183.09" cy="53.77" fill="#132e65"></circle>
        <circle r="5" cx="2190.06" cy="198.7" fill="#132e65"></circle>
        <circle r="5" cx="2164.65" cy="359.93" fill="#132e65"></circle>
        <circle r="5" cx="2153.01" cy="561.52" fill="#132e65"></circle>
        <path d="M-110.81 498.39L-110.81 498.39" stroke="hsl(228.5, 77.2%, 51.5%)" stroke-width="1.5"></path>
        <path d="M-110.81 498.39L-54.92 342.48" stroke="hsl(228.5, 77.2%, 51.5%)" stroke-width="1.5"></path>
        <path d="M-110.81 498.39L66.22 539.65" stroke="hsl(228.5, 77.2%, 51.5%)" stroke-width="1.5"></path>
        <path d="M66.22 539.65L66.22 539.65" stroke="hsl(228.5, 77.2%, 51.5%)" stroke-width="1.5"></path>
        <path d="M66.22 539.65L85.35 362.01" stroke="hsl(228.5, 77.2%, 51.5%)" stroke-width="1.5"></path>
        <path d="M66.22 539.65L243.97 513.12" stroke="hsl(228.5, 77.2%, 51.5%)" stroke-width="1.5"></path>
        <path d="M1116.15 527.4L1116.15 527.4" stroke="hsl(228.5, 77.2%, 51.5%)" stroke-width="1.5"></path>
        <path d="M1116.15 527.4L973.69 504.56" stroke="hsl(228.5, 77.2%, 51.5%)" stroke-width="1.5"></path>
        <path d="M1886.55 338.06L1886.55 338.06" stroke="hsl(228.5, 77.2%, 51.5%)" stroke-width="1.5"></path>
        <path d="M1886.55 338.06L1870.55 243.66" stroke="hsl(228.5, 77.2%, 51.5%)" stroke-width="1.5"></path>
        <path d="M1886.55 338.06L2028.81 361.43" stroke="hsl(228.5, 77.2%, 51.5%)" stroke-width="1.5"></path>
        <path d="M2025.77 -50.52L2025.77 -50.52" stroke="hsl(228.5, 77.2%, 51.5%)" stroke-width="1.5"></path>
        <path d="M2025.77 -50.52L2024.45 77.1" stroke="hsl(228.5, 77.2%, 51.5%)" stroke-width="1.5"></path>
        <path d="M2025.77 -50.52L2179.52 -62.92" stroke="hsl(228.5, 77.2%, 51.5%)" stroke-width="1.5"></path>
        <path d="M2025.77 -50.52L1866.23 -47.9" stroke="hsl(228.5, 77.2%, 51.5%)" stroke-width="1.5"></path>
        <path d="M2025.77 -50.52L2155.99 96.54" stroke="hsl(228.5, 77.2%, 51.5%)" stroke-width="1.5"></path>
        <path d="M2024.54 206.78L2024.54 206.78" stroke="hsl(228.5, 77.2%, 51.5%)" stroke-width="1.5"></path>
        <path d="M2024.54 206.78L2024.45 77.1" stroke="hsl(228.5, 77.2%, 51.5%)" stroke-width="1.5"></path>
        <path d="M2045.66 513.1L2045.66 513.1" stroke="hsl(228.5, 77.2%, 51.5%)" stroke-width="1.5"></path>
        <path d="M2045.66 513.1L2028.81 361.43" stroke="hsl(228.5, 77.2%, 51.5%)" stroke-width="1.5"></path>
        <path d="M2045.66 513.1L1845.59 517.17" stroke="hsl(228.5, 77.2%, 51.5%)" stroke-width="1.5"></path>
        <path d="M2045.66 513.1L2206.33 360.69" stroke="hsl(228.5, 77.2%, 51.5%)" stroke-width="1.5"></path>
        <path d="M2045.66 513.1L1886.55 338.06" stroke="hsl(228.5, 77.2%, 51.5%)" stroke-width="1.5"></path>
        <path d="M2155.99 96.54L2155.99 96.54" stroke="hsl(228.5, 77.2%, 51.5%)" stroke-width="1.5"></path>
        <path d="M2155.99 96.54L2154.82 204.4" stroke="hsl(228.5, 77.2%, 51.5%)" stroke-width="1.5"></path>
        <path d="M2155.99 96.54L2024.45 77.1" stroke="hsl(228.5, 77.2%, 51.5%)" stroke-width="1.5"></path>
        <path d="M2155.99 96.54L2179.52 -62.92" stroke="hsl(228.5, 77.2%, 51.5%)" stroke-width="1.5"></path>
        <path d="M2155.99 96.54L2024.54 206.78" stroke="hsl(228.5, 77.2%, 51.5%)" stroke-width="1.5"></path>
        <path d="M-54.92 342.48L-54.92 342.48" stroke="hsl(228.5, 77.2%, 51.5%)" stroke-width="1.5"></path>
        <path d="M-54.92 342.48L85.35 362.01" stroke="hsl(228.5, 77.2%, 51.5%)" stroke-width="1.5"></path>
        <path d="M85.35 362.01L85.35 362.01" stroke="hsl(228.5, 77.2%, 51.5%)" stroke-width="1.5"></path>
        <path d="M243.97 513.12L243.97 513.12" stroke="hsl(228.5, 77.2%, 51.5%)" stroke-width="1.5"></path>
        <path d="M243.97 513.12L342.67 524.97" stroke="hsl(228.5, 77.2%, 51.5%)" stroke-width="1.5"></path>
        <path d="M243.97 513.12L354.35 371.49" stroke="hsl(228.5, 77.2%, 51.5%)" stroke-width="1.5"></path>
        <path d="M354.35 371.49L354.35 371.49" stroke="hsl(228.5, 77.2%, 51.5%)" stroke-width="1.5"></path>
        <path d="M354.35 371.49L342.67 524.97" stroke="hsl(228.5, 77.2%, 51.5%)" stroke-width="1.5"></path>
        <path d="M354.35 371.49L535.67 374.16" stroke="hsl(228.5, 77.2%, 51.5%)" stroke-width="1.5"></path>
        <path d="M342.67 524.97L342.67 524.97" stroke="hsl(228.5, 77.2%, 51.5%)" stroke-width="1.5"></path>
        <path d="M535.67 374.16L535.67 374.16" stroke="hsl(228.5, 77.2%, 51.5%)" stroke-width="1.5"></path>
        <path d="M535.67 374.16L687.46 396.53" stroke="hsl(228.5, 77.2%, 51.5%)" stroke-width="1.5"></path>
        <path d="M538.04 534.03L538.04 534.03" stroke="hsl(228.5, 77.2%, 51.5%)" stroke-width="1.5"></path>
        <path d="M538.04 534.03L535.67 374.16" stroke="hsl(228.5, 77.2%, 51.5%)" stroke-width="1.5"></path>
        <path d="M538.04 534.03L705.91 551.39" stroke="hsl(228.5, 77.2%, 51.5%)" stroke-width="1.5"></path>
        <path d="M538.04 534.03L342.67 524.97" stroke="hsl(228.5, 77.2%, 51.5%)" stroke-width="1.5"></path>
        <path d="M538.04 534.03L687.46 396.53" stroke="hsl(228.5, 77.2%, 51.5%)" stroke-width="1.5"></path>
        <path d="M538.04 534.03L354.35 371.49" stroke="hsl(228.5, 77.2%, 51.5%)" stroke-width="1.5"></path>
        <path d="M687.46 396.53L687.46 396.53" stroke="hsl(228.5, 77.2%, 51.5%)" stroke-width="1.5"></path>
        <path d="M687.46 396.53L813.82 409.2" stroke="hsl(228.5, 77.2%, 51.5%)" stroke-width="1.5"></path>
        <path d="M687.46 396.53L705.91 551.39" stroke="hsl(228.5, 77.2%, 51.5%)" stroke-width="1.5"></path>
        <path d="M687.46 396.53L814.19 493.7" stroke="hsl(228.5, 77.2%, 51.5%)" stroke-width="1.5"></path>
        <path d="M705.91 551.39L705.91 551.39" stroke="hsl(228.5, 77.2%, 51.5%)" stroke-width="1.5"></path>
        <path d="M705.91 551.39L814.19 493.7" stroke="hsl(228.5, 77.2%, 51.5%)" stroke-width="1.5"></path>
        <path d="M705.91 551.39L813.82 409.2" stroke="hsl(228.5, 77.2%, 51.5%)" stroke-width="1.5"></path>
        <path d="M705.91 551.39L535.67 374.16" stroke="hsl(228.5, 77.2%, 51.5%)" stroke-width="1.5"></path>
        <path d="M705.91 551.39L973.69 504.56" stroke="hsl(228.5, 77.2%, 51.5%)" stroke-width="1.5"></path>
        <path d="M813.82 409.2L813.82 409.2" stroke="hsl(228.5, 77.2%, 51.5%)" stroke-width="1.5"></path>
        <path d="M813.82 409.2L814.19 493.7" stroke="hsl(228.5, 77.2%, 51.5%)" stroke-width="1.5"></path>
        <path d="M813.82 409.2L967.38 360.75" stroke="hsl(228.5, 77.2%, 51.5%)" stroke-width="1.5"></path>
        <path d="M814.19 493.7L814.19 493.7" stroke="hsl(228.5, 77.2%, 51.5%)" stroke-width="1.5"></path>
        <path d="M814.19 493.7L973.69 504.56" stroke="hsl(228.5, 77.2%, 51.5%)" stroke-width="1.5"></path>
        <path d="M814.19 493.7L967.38 360.75" stroke="hsl(228.5, 77.2%, 51.5%)" stroke-width="1.5"></path>
        <path d="M814.19 493.7L538.04 534.03" stroke="hsl(228.5, 77.2%, 51.5%)" stroke-width="1.5"></path>
        <path d="M967.38 360.75L967.38 360.75" stroke="hsl(228.5, 77.2%, 51.5%)" stroke-width="1.5"></path>
        <path d="M967.38 360.75L1093.86 381.18" stroke="hsl(228.5, 77.2%, 51.5%)" stroke-width="1.5"></path>
        <path d="M967.38 360.75L973.69 504.56" stroke="hsl(228.5, 77.2%, 51.5%)" stroke-width="1.5"></path>
        <path d="M973.69 504.56L973.69 504.56" stroke="hsl(228.5, 77.2%, 51.5%)" stroke-width="1.5"></path>
        <path d="M1108.38 236.58L1108.38 236.58" stroke="hsl(228.5, 77.2%, 51.5%)" stroke-width="1.5"></path>
        <path d="M1108.38 236.58L1093.86 381.18" stroke="hsl(228.5, 77.2%, 51.5%)" stroke-width="1.5"></path>
        <path d="M1108.38 236.58L1279.7 232.03" stroke="hsl(228.5, 77.2%, 51.5%)" stroke-width="1.5"></path>
        <path d="M1108.38 236.58L1239.4 348.26" stroke="hsl(228.5, 77.2%, 51.5%)" stroke-width="1.5"></path>
        <path d="M1108.38 236.58L967.38 360.75" stroke="hsl(228.5, 77.2%, 51.5%)" stroke-width="1.5"></path>
        <path d="M1108.38 236.58L1116.15 527.4" stroke="hsl(228.5, 77.2%, 51.5%)" stroke-width="1.5"></path>
        <path d="M1108.38 236.58L1401.68 219.61" stroke="hsl(228.5, 77.2%, 51.5%)" stroke-width="1.5"></path>
        <path d="M1093.86 381.18L1093.86 381.18" stroke="hsl(228.5, 77.2%, 51.5%)" stroke-width="1.5"></path>
        <path d="M1279.7 232.03L1279.7 232.03" stroke="hsl(228.5, 77.2%, 51.5%)" stroke-width="1.5"></path>
        <path d="M1279.7 232.03L1401.68 219.61" stroke="hsl(228.5, 77.2%, 51.5%)" stroke-width="1.5"></path>
        <path d="M1239.4 348.26L1239.4 348.26" stroke="hsl(228.5, 77.2%, 51.5%)" stroke-width="1.5"></path>
        <path d="M1239.4 348.26L1279.7 232.03" stroke="hsl(228.5, 77.2%, 51.5%)" stroke-width="1.5"></path>
        <path d="M1239.4 348.26L1093.86 381.18" stroke="hsl(228.5, 77.2%, 51.5%)" stroke-width="1.5"></path>
        <path d="M1401.68 219.61L1401.68 219.61" stroke="hsl(228.5, 77.2%, 51.5%)" stroke-width="1.5"></path>
        <path d="M1401.68 219.61L1564.99 233.98" stroke="hsl(228.5, 77.2%, 51.5%)" stroke-width="1.5"></path>
        <path d="M1401.68 219.61L1427.18 393.08" stroke="hsl(228.5, 77.2%, 51.5%)" stroke-width="1.5"></path>
        <path d="M1401.68 219.61L1552.31 360.96" stroke="hsl(228.5, 77.2%, 51.5%)" stroke-width="1.5"></path>
        <path d="M1427.18 393.08L1427.18 393.08" stroke="hsl(228.5, 77.2%, 51.5%)" stroke-width="1.5"></path>
        <path d="M1427.18 393.08L1552.31 360.96" stroke="hsl(228.5, 77.2%, 51.5%)" stroke-width="1.5"></path>
        <path d="M1427.18 393.08L1459.75 552.16" stroke="hsl(228.5, 77.2%, 51.5%)" stroke-width="1.5"></path>
        <path d="M1459.75 552.16L1459.75 552.16" stroke="hsl(228.5, 77.2%, 51.5%)" stroke-width="1.5"></path>
        <path d="M1459.75 552.16L1576.77 492.54" stroke="hsl(228.5, 77.2%, 51.5%)" stroke-width="1.5"></path>
        <path d="M1578.62 67.97L1578.62 67.97" stroke="hsl(228.5, 77.2%, 51.5%)" stroke-width="1.5"></path>
        <path d="M1578.62 67.97L1714.63 95.02" stroke="hsl(228.5, 77.2%, 51.5%)" stroke-width="1.5"></path>
        <path d="M1578.62 67.97L1564.99 233.98" stroke="hsl(228.5, 77.2%, 51.5%)" stroke-width="1.5"></path>
        <path d="M1578.62 67.97L1728.21 -41.33" stroke="hsl(228.5, 77.2%, 51.5%)" stroke-width="1.5"></path>
        <path d="M1578.62 67.97L1401.68 219.61" stroke="hsl(228.5, 77.2%, 51.5%)" stroke-width="1.5"></path>
        <path d="M1578.62 67.97L1746.91 232.99" stroke="hsl(228.5, 77.2%, 51.5%)" stroke-width="1.5"></path>
        <path d="M1564.99 233.98L1564.99 233.98" stroke="hsl(228.5, 77.2%, 51.5%)" stroke-width="1.5"></path>
        <path d="M1564.99 233.98L1552.31 360.96" stroke="hsl(228.5, 77.2%, 51.5%)" stroke-width="1.5"></path>
        <path d="M1564.99 233.98L1746.91 232.99" stroke="hsl(228.5, 77.2%, 51.5%)" stroke-width="1.5"></path>
        <path d="M1564.99 233.98L1714.63 95.02" stroke="hsl(228.5, 77.2%, 51.5%)" stroke-width="1.5"></path>
        <path d="M1552.31 360.96L1552.31 360.96" stroke="hsl(228.5, 77.2%, 51.5%)" stroke-width="1.5"></path>
        <path d="M1576.77 492.54L1576.77 492.54" stroke="hsl(228.5, 77.2%, 51.5%)" stroke-width="1.5"></path>
        <path d="M1576.77 492.54L1691.49 527.55" stroke="hsl(228.5, 77.2%, 51.5%)" stroke-width="1.5"></path>
        <path d="M1576.77 492.54L1552.31 360.96" stroke="hsl(228.5, 77.2%, 51.5%)" stroke-width="1.5"></path>
        <path d="M1576.77 492.54L1427.18 393.08" stroke="hsl(228.5, 77.2%, 51.5%)" stroke-width="1.5"></path>
        <path d="M1576.77 492.54L1564.99 233.98" stroke="hsl(228.5, 77.2%, 51.5%)" stroke-width="1.5"></path>
        <path d="M1576.77 492.54L1845.59 517.17" stroke="hsl(228.5, 77.2%, 51.5%)" stroke-width="1.5"></path>
        <path d="M1728.21 -41.33L1728.21 -41.33" stroke="hsl(228.5, 77.2%, 51.5%)" stroke-width="1.5"></path>
        <path d="M1728.21 -41.33L1714.63 95.02" stroke="hsl(228.5, 77.2%, 51.5%)" stroke-width="1.5"></path>
        <path d="M1728.21 -41.33L1866.23 -47.9" stroke="hsl(228.5, 77.2%, 51.5%)" stroke-width="1.5"></path>
        <path d="M1728.21 -41.33L1839.2 56.03" stroke="hsl(228.5, 77.2%, 51.5%)" stroke-width="1.5"></path>
        <path d="M1728.21 -41.33L1746.91 232.99" stroke="hsl(228.5, 77.2%, 51.5%)" stroke-width="1.5"></path>
        <path d="M1728.21 -41.33L2025.77 -50.52" stroke="hsl(228.5, 77.2%, 51.5%)" stroke-width="1.5"></path>
        <path d="M1714.63 95.02L1714.63 95.02" stroke="hsl(228.5, 77.2%, 51.5%)" stroke-width="1.5"></path>
        <path d="M1714.63 95.02L1839.2 56.03" stroke="hsl(228.5, 77.2%, 51.5%)" stroke-width="1.5"></path>
        <path d="M1714.63 95.02L1746.91 232.99" stroke="hsl(228.5, 77.2%, 51.5%)" stroke-width="1.5"></path>
        <path d="M1746.91 232.99L1746.91 232.99" stroke="hsl(228.5, 77.2%, 51.5%)" stroke-width="1.5"></path>
        <path d="M1746.91 232.99L1870.55 243.66" stroke="hsl(228.5, 77.2%, 51.5%)" stroke-width="1.5"></path>
        <path d="M1746.91 232.99L1886.55 338.06" stroke="hsl(228.5, 77.2%, 51.5%)" stroke-width="1.5"></path>
        <path d="M1746.91 232.99L1839.2 56.03" stroke="hsl(228.5, 77.2%, 51.5%)" stroke-width="1.5"></path>
        <path d="M1746.91 232.99L1552.31 360.96" stroke="hsl(228.5, 77.2%, 51.5%)" stroke-width="1.5"></path>
        <path d="M1691.49 527.55L1691.49 527.55" stroke="hsl(228.5, 77.2%, 51.5%)" stroke-width="1.5"></path>
        <path d="M1691.49 527.55L1845.59 517.17" stroke="hsl(228.5, 77.2%, 51.5%)" stroke-width="1.5"></path>
        <path d="M1866.23 -47.9L1866.23 -47.9" stroke="hsl(228.5, 77.2%, 51.5%)" stroke-width="1.5"></path>
        <path d="M1866.23 -47.9L1839.2 56.03" stroke="hsl(228.5, 77.2%, 51.5%)" stroke-width="1.5"></path>
        <path d="M1866.23 -47.9L2024.45 77.1" stroke="hsl(228.5, 77.2%, 51.5%)" stroke-width="1.5"></path>
        <path d="M1866.23 -47.9L1714.63 95.02" stroke="hsl(228.5, 77.2%, 51.5%)" stroke-width="1.5"></path>
        <path d="M1866.23 -47.9L1870.55 243.66" stroke="hsl(228.5, 77.2%, 51.5%)" stroke-width="1.5"></path>
        <path d="M1839.2 56.03L1839.2 56.03" stroke="hsl(228.5, 77.2%, 51.5%)" stroke-width="1.5"></path>
        <path d="M1839.2 56.03L2024.45 77.1" stroke="hsl(228.5, 77.2%, 51.5%)" stroke-width="1.5"></path>
        <path d="M1870.55 243.66L1870.55 243.66" stroke="hsl(228.5, 77.2%, 51.5%)" stroke-width="1.5"></path>
        <path d="M1870.55 243.66L2024.54 206.78" stroke="hsl(228.5, 77.2%, 51.5%)" stroke-width="1.5"></path>
        <path d="M1870.55 243.66L1839.2 56.03" stroke="hsl(228.5, 77.2%, 51.5%)" stroke-width="1.5"></path>
        <path d="M1870.55 243.66L2028.81 361.43" stroke="hsl(228.5, 77.2%, 51.5%)" stroke-width="1.5"></path>
        <path d="M1870.55 243.66L1714.63 95.02" stroke="hsl(228.5, 77.2%, 51.5%)" stroke-width="1.5"></path>
        <path d="M1845.59 517.17L1845.59 517.17" stroke="hsl(228.5, 77.2%, 51.5%)" stroke-width="1.5"></path>
        <path d="M1845.59 517.17L1886.55 338.06" stroke="hsl(228.5, 77.2%, 51.5%)" stroke-width="1.5"></path>
        <path d="M1845.59 517.17L2028.81 361.43" stroke="hsl(228.5, 77.2%, 51.5%)" stroke-width="1.5"></path>
        <path d="M2024.45 77.1L2024.45 77.1" stroke="hsl(228.5, 77.2%, 51.5%)" stroke-width="1.5"></path>
        <path d="M2028.81 361.43L2028.81 361.43" stroke="hsl(228.5, 77.2%, 51.5%)" stroke-width="1.5"></path>
        <path d="M2028.81 361.43L2024.54 206.78" stroke="hsl(228.5, 77.2%, 51.5%)" stroke-width="1.5"></path>
        <path d="M2179.52 -62.92L2179.52 -62.92" stroke="hsl(228.5, 77.2%, 51.5%)" stroke-width="1.5"></path>
        <path d="M2179.52 -62.92L2024.45 77.1" stroke="hsl(228.5, 77.2%, 51.5%)" stroke-width="1.5"></path>
        <path d="M2179.52 -62.92L2154.82 204.4" stroke="hsl(228.5, 77.2%, 51.5%)" stroke-width="1.5"></path>
        <path d="M2179.52 -62.92L2024.54 206.78" stroke="hsl(228.5, 77.2%, 51.5%)" stroke-width="1.5"></path>
        <path d="M2179.52 -62.92L1866.23 -47.9" stroke="hsl(228.5, 77.2%, 51.5%)" stroke-width="1.5"></path>
        <path d="M2154.82 204.4L2154.82 204.4" stroke="hsl(228.5, 77.2%, 51.5%)" stroke-width="1.5"></path>
        <path d="M2154.82 204.4L2024.54 206.78" stroke="hsl(228.5, 77.2%, 51.5%)" stroke-width="1.5"></path>
        <path d="M2154.82 204.4L2206.33 360.69" stroke="hsl(228.5, 77.2%, 51.5%)" stroke-width="1.5"></path>
        <path d="M2154.82 204.4L2024.45 77.1" stroke="hsl(228.5, 77.2%, 51.5%)" stroke-width="1.5"></path>
        <path d="M2154.82 204.4L2028.81 361.43" stroke="hsl(228.5, 77.2%, 51.5%)" stroke-width="1.5"></path>
        <path d="M2206.33 360.69L2206.33 360.69" stroke="hsl(228.5, 77.2%, 51.5%)" stroke-width="1.5"></path>
        <path d="M2206.33 360.69L2028.81 361.43" stroke="hsl(228.5, 77.2%, 51.5%)" stroke-width="1.5"></path>
        <path d="M2206.33 360.69L2024.54 206.78" stroke="hsl(228.5, 77.2%, 51.5%)" stroke-width="1.5"></path>
        <path d="M2206.33 360.69L2155.99 96.54" stroke="hsl(228.5, 77.2%, 51.5%)" stroke-width="1.5"></path>
        <circle r="25" cx="-110.81" cy="498.39" fill="url(&quot;#SvgjsRadialGradient1037&quot;)"></circle>
        <circle r="25" cx="66.22" cy="539.65" fill="url(&quot;#SvgjsRadialGradient1037&quot;)"></circle>
        <circle r="25" cx="1116.15" cy="527.4" fill="url(&quot;#SvgjsRadialGradient1037&quot;)"></circle>
        <circle r="25" cx="1886.55" cy="338.06" fill="url(&quot;#SvgjsRadialGradient1037&quot;)"></circle>
        <circle r="25" cx="2025.77" cy="-50.52" fill="url(&quot;#SvgjsRadialGradient1037&quot;)"></circle>
        <circle r="25" cx="2024.54" cy="206.78" fill="url(&quot;#SvgjsRadialGradient1037&quot;)"></circle>
        <circle r="25" cx="2045.66" cy="513.1" fill="url(&quot;#SvgjsRadialGradient1037&quot;)"></circle>
        <circle r="25" cx="2155.99" cy="96.54" fill="url(&quot;#SvgjsRadialGradient1037&quot;)"></circle>
        <circle r="5" cx="-54.92" cy="342.48" fill="#8b9ad9"></circle>
        <circle r="5" cx="85.35" cy="362.01" fill="#8b9ad9"></circle>
        <circle r="5" cx="243.97" cy="513.12" fill="#8b9ad9"></circle>
        <circle r="5" cx="354.35" cy="371.49" fill="#8b9ad9"></circle>
        <circle r="5" cx="342.67" cy="524.97" fill="#8b9ad9"></circle>
        <circle r="5" cx="535.67" cy="374.16" fill="#8b9ad9"></circle>
        <circle r="5" cx="538.04" cy="534.03" fill="#8b9ad9"></circle>
        <circle r="5" cx="687.46" cy="396.53" fill="#8b9ad9"></circle>
        <circle r="5" cx="705.91" cy="551.39" fill="#8b9ad9"></circle>
        <circle r="5" cx="813.82" cy="409.2" fill="#8b9ad9"></circle>
        <circle r="5" cx="814.19" cy="493.7" fill="#8b9ad9"></circle>
        <circle r="5" cx="967.38" cy="360.75" fill="#8b9ad9"></circle>
        <circle r="5" cx="973.69" cy="504.56" fill="#8b9ad9"></circle>
        <circle r="5" cx="1108.38" cy="236.58" fill="#8b9ad9"></circle>
        <circle r="5" cx="1093.86" cy="381.18" fill="#8b9ad9"></circle>
        <circle r="5" cx="1279.7" cy="232.03" fill="#8b9ad9"></circle>
        <circle r="5" cx="1239.4" cy="348.26" fill="#8b9ad9"></circle>
        <circle r="5" cx="1401.68" cy="219.61" fill="#8b9ad9"></circle>
        <circle r="5" cx="1427.18" cy="393.08" fill="#8b9ad9"></circle>
        <circle r="5" cx="1459.75" cy="552.16" fill="#8b9ad9"></circle>
        <circle r="5" cx="1578.62" cy="67.97" fill="#8b9ad9"></circle>
        <circle r="5" cx="1564.99" cy="233.98" fill="#8b9ad9"></circle>
        <circle r="5" cx="1552.31" cy="360.96" fill="#8b9ad9"></circle>
        <circle r="5" cx="1576.77" cy="492.54" fill="#8b9ad9"></circle>
        <circle r="5" cx="1728.21" cy="-41.33" fill="#8b9ad9"></circle>
        <circle r="5" cx="1714.63" cy="95.02" fill="#8b9ad9"></circle>
        <circle r="5" cx="1746.91" cy="232.99" fill="#8b9ad9"></circle>
        <circle r="5" cx="1691.49" cy="527.55" fill="#8b9ad9"></circle>
        <circle r="5" cx="1866.23" cy="-47.9" fill="#8b9ad9"></circle>
        <circle r="5" cx="1839.2" cy="56.03" fill="#8b9ad9"></circle>
        <circle r="5" cx="1870.55" cy="243.66" fill="#8b9ad9"></circle>
        <circle r="5" cx="1845.59" cy="517.17" fill="#8b9ad9"></circle>
        <circle r="5" cx="2024.45" cy="77.1" fill="#8b9ad9"></circle>
        <circle r="5" cx="2028.81" cy="361.43" fill="#8b9ad9"></circle>
        <circle r="5" cx="2179.52" cy="-62.92" fill="#8b9ad9"></circle>
        <circle r="5" cx="2154.82" cy="204.4" fill="#8b9ad9"></circle>
        <circle r="5" cx="2206.33" cy="360.69" fill="#8b9ad9"></circle>
    </g>
    <defs>
        <mask id="SvgjsMask1036">
            <rect width="2000" height="400" fill="#ffffff"></rect>
        </mask>
        <radialGradient id="SvgjsRadialGradient1037">
            <stop stop-color="#ffffff" offset="0.1"></stop>
            <stop stop-color="#1735b3" offset="0.2"></stop>
            <stop stop-color="rgba(23, 53, 179, 0)" offset="1"></stop>
        </radialGradient>
    </defs>
</svg>